<?xml version="1.0" encoding="utf-8"?>
<!-- Generator: Adobe Illustrator 19.0.0, SVG Export Plug-In . SVG Version: 6.00 Build 0)  -->
<svg version="1.1" id="Layer_1" xmlns="http://www.w3.org/2000/svg" xmlns:xlink="http://www.w3.org/1999/xlink" x="0px" y="0px"
	 viewBox="0 0 96 96" style="enable-background:new 0 0 96 96;" xml:space="preserve">
<style type="text/css">
	.st0{fill:#fff;}
</style>
<g id="XMLID_2_">
	<path id="XMLID_6_" class="st0" d="M75.5,40.3v24.4c0,1.4-0.5,2.5-1.4,3.5c-1,1-2.1,1.4-3.5,1.4H25.4c-1.4,0-2.5-0.5-3.5-1.4
		s-1.4-2.1-1.4-3.5V40.3c0.9,1,1.9,1.9,3.1,2.7c7.4,5,12.5,8.6,15.3,10.6c1.2,0.9,2.1,1.5,2.8,2c0.7,0.5,1.7,1,2.9,1.5
		c1.2,0.5,2.3,0.8,3.4,0.8H48c1,0,2.2-0.3,3.4-0.8c1.2-0.5,2.2-1,2.9-1.5s1.7-1.2,2.8-2c3.5-2.5,8.6-6,15.3-10.6
		C73.6,42.2,74.6,41.3,75.5,40.3z M75.5,31.3c0,1.6-0.5,3.2-1.5,4.6c-1,1.5-2.3,2.7-3.7,3.8c-7.7,5.3-12.5,8.7-14.4,10
		c-0.2,0.1-0.6,0.5-1.3,0.9c-0.7,0.5-1.2,0.9-1.7,1.2s-1,0.6-1.6,1c-0.6,0.4-1.2,0.6-1.8,0.8c-0.6,0.2-1.1,0.3-1.5,0.3H48
		c-0.5,0-1-0.1-1.5-0.3c-0.6-0.2-1.1-0.5-1.8-0.8c-0.6-0.4-1.2-0.7-1.6-1s-1-0.7-1.7-1.2c-0.7-0.5-1.1-0.8-1.3-0.9
		c-1.9-1.3-4.5-3.2-8-5.6c-3.5-2.4-5.6-3.9-6.3-4.4c-1.3-0.9-2.5-2-3.6-3.5c-1.1-1.5-1.7-2.9-1.7-4.2c0-1.6,0.4-2.9,1.3-4
		c0.8-1.1,2.1-1.6,3.6-1.6h45.2c1.3,0,2.5,0.5,3.5,1.4C75,28.8,75.5,30,75.5,31.3z"/>
</g>
</svg>
